# TEM Anomaly Isosurface
v 20.479 -40.333 -6.651
v 21.692 -40.679 -6.651
v 21.692 -40.333 -7.495
v 21.039 -40.333 -5.323
v 21.692 -40.541 -5.323
v 21.692 -40.333 -5.035
v 21.379 -38.061 -6.651
v 21.692 -38.061 -7.340
v 21.615 -38.061 -5.323
v 21.692 -38.061 -5.235
v 21.692 -37.887 -6.651
v 21.692 -38.016 -5.323
v 22.709 -40.333 -6.651
v 22.316 -40.333 -5.323
v 23.324 -38.338 -6.651
v 23.324 -38.061 -6.724
v 22.258 -38.061 -5.323
v 23.324 -38.061 -6.366
v 23.324 -38.028 -6.651
v 23.161 18.746 14.600
v 23.324 18.174 14.600
v 23.324 18.746 13.822
v 23.324 18.746 15.064
v 23.324 19.763 14.600
v 23.379 -38.061 -6.651
v 24.449 -8.521 6.631
v 24.955 -9.404 6.631
v 24.955 -8.521 6.317
v 24.955 -8.521 7.224
v 24.762 -6.249 6.631
v 24.955 -6.249 6.502
v 24.955 -6.249 6.944
v 24.955 -5.923 6.631
v 23.988 16.474 14.600
v 24.955 15.605 14.600
v 24.955 16.474 13.478
v 24.514 16.474 15.929
v 24.955 16.087 15.929
v 24.955 16.474 16.380
v 23.733 18.746 13.272
v 24.955 17.095 13.272
v 24.955 18.746 13.059
v 23.745 18.746 15.929
v 24.955 17.871 17.257
v 24.510 18.746 17.257
v 24.955 18.746 18.297
v 24.955 20.657 13.272
v 23.665 21.019 14.600
v 24.955 21.019 13.377
v 24.310 21.019 15.929
v 24.955 21.019 16.832
v 24.955 20.093 17.257
v 24.955 22.430 14.600
v 24.955 21.827 15.929
v 26.586 -9.610 6.631
v 26.586 -8.521 6.082
v 25.680 -8.521 7.959
v 26.586 -9.222 7.959
v 26.586 -8.521 8.300
v 26.586 -6.249 5.995
v 25.580 -6.249 7.959
v 26.586 -6.249 8.479
v 26.586 -4.567 6.631
v 26.586 -4.780 7.959
v 26.586 15.752 14.600
v 26.586 16.474 13.924
v 26.586 15.555 15.929
v 25.964 16.474 17.257
v 26.586 16.079 17.257
v 26.586 16.474 17.868
v 26.586 18.516 13.272
v 26.586 18.746 13.236
v 25.504 18.746 18.585
v 26.586 18.017 18.585
v 26.586 18.746 18.811
v 26.586 19.013 13.272
v 26.586 21.019 13.702
v 25.821 21.019 17.257
v 26.586 21.019 17.551
v 26.586 19.208 18.585
v 26.586 22.283 14.600
v 26.586 22.384 15.929
v 26.586 21.340 17.257
v 28.218 -8.718 6.631
v 28.218 -8.521 6.518
v 28.218 -8.946 7.959
v 28.218 -8.521 8.265
v 28.218 -6.249 6.239
v 28.218 -6.249 8.727
v 28.218 -4.758 6.631
v 28.104 -3.976 7.959
v 28.218 -3.976 7.839
v 28.218 -3.976 7.994
v 28.218 -3.919 7.959
v 28.218 16.094 14.600
v 28.218 16.474 14.215
v 28.218 15.867 15.929
v 28.005 16.474 17.257
v 28.218 16.474 17.145
v 28.218 18.570 13.272
v 28.218 18.746 13.225
v 28.218 16.799 17.257
v 27.003 18.746 18.585
v 28.218 18.746 17.732
v 28.218 18.886 13.272
v 28.218 21.019 14.517
v 27.565 21.019 17.257
v 28.218 21.019 16.831
v 28.218 20.304 17.257
v 28.218 21.122 14.600
v 28.218 21.565 15.929
v 28.375 -8.521 6.631
v 28.628 -8.521 7.959
v 28.948 -6.249 6.631
v 29.642 -6.249 7.959
v 28.460 -3.976 7.959
v 28.755 16.474 14.600
v 28.901 16.474 15.929
v 28.374 18.746 13.272
v 29.470 18.746 14.600
v 29.451 18.746 15.929
v 28.773 18.746 17.257
v 28.321 21.019 14.600
v 28.777 21.019 15.929
v 38.679 25.563 -1.338
v 39.637 23.902 -1.338
v 39.637 25.563 -2.573
v 38.304 25.563 -0.010
v 39.637 23.475 -0.010
v 38.687 25.563 1.318
v 39.637 23.955 1.318
v 39.637 25.563 2.529
v 38.876 27.835 -1.338
v 39.637 27.835 -2.053
v 38.313 27.835 -0.010
v 38.840 27.835 1.318
v 39.637 27.835 2.099
v 39.637 29.000 -1.338
v 39.637 29.974 -0.010
v 39.637 29.080 1.318
v 41.118 -33.516 31.867
v 41.268 -33.938 31.867
v 41.268 -33.516 31.076
v 40.990 -33.516 33.196
v 41.268 -34.033 33.196
v 41.127 -31.244 31.867
v 41.268 -31.244 31.421
v 40.782 -31.244 33.196
v 41.268 -30.793 31.867
v 41.268 -29.714 33.196
v 40.728 21.019 -1.338
v 41.268 20.047 -1.338
v 41.268 21.019 -2.609
v 40.557 21.019 -0.010
v 41.268 19.721 -0.010
v 40.758 21.019 1.318
v 41.268 20.067 1.318
v 41.268 21.019 2.424
v 41.068 23.291 -3.995
v 41.268 22.735 -3.995
v 41.268 23.291 -4.252
v 40.303 23.291 -2.666
v 41.268 21.059 -2.666
v 39.857 23.291 -1.338
v 39.709 23.291 -0.010
v 39.879 23.291 1.318
v 41.268 21.183 2.647
v 40.372 23.291 2.647
v 41.096 23.291 3.975
v 41.268 22.809 3.975
v 41.268 23.291 4.248
v 40.735 25.563 -3.995
v 41.268 25.563 -4.522
v 39.692 25.563 -2.666
v 39.706 25.563 2.647
v 40.729 25.563 3.975
v 41.268 25.563 4.535
v 41.268 26.498 -3.995
v 41.268 27.835 -3.295
v 40.353 27.835 -2.666
v 40.272 27.835 2.647
v 41.268 27.835 3.330
v 41.268 26.582 3.975
v 41.268 28.745 -2.666
v 40.835 30.108 -1.338
v 41.268 30.108 -1.568
v 39.777 30.108 -0.010
v 40.735 30.108 1.318
v 41.268 30.108 1.627
v 41.268 28.866 2.647
v 41.268 30.413 -1.338
v 41.268 31.140 -0.010
v 41.268 30.488 1.318
v 42.678 -35.788 26.554
v 42.900 -36.252 26.554
v 42.900 -35.788 25.812
v 42.510 -35.788 27.883
v 42.900 -36.362 27.883
v 42.475 -35.788 29.211
v 42.900 -36.257 29.211
v 42.593 -35.788 30.539
v 42.900 -36.066 30.539
v 42.861 -35.788 31.867
v 42.900 -35.819 31.867
v 42.900 -35.788 32.020
v 42.558 -33.516 26.554
v 42.900 -33.516 25.754
v 42.144 -33.516 27.883
v 41.782 -33.516 29.211
v 41.395 -33.516 30.539
v 42.900 -35.507 33.196
v 42.900 -31.419 26.554
v 42.900 -31.244 26.634
v 42.442 -31.244 27.883
v 42.005 -31.244 29.211
v 41.568 -31.244 30.539
v 42.900 -29.930 27.883
v 42.900 -28.971 28.934
v 42.801 -28.971 29.211
v 42.391 -28.971 30.539
v 41.985 -28.971 31.867
v 41.577 -28.971 33.196
v 42.900 -28.794 29.211
v 42.900 -28.149 30.539
v 42.900 -27.643 31.867
v 42.900 -27.216 33.196
v 42.203 18.746 -1.338
v 42.900 17.948 -1.338
v 42.900 18.746 -2.566
v 41.967 18.746 -0.010
v 42.900 17.617 -0.010
v 42.206 18.746 1.318
v 42.900 17.928 1.318
v 42.900 18.746 2.509
v 42.180 21.019 -3.995
v 42.900 20.065 -3.995
v 42.900 21.019 -4.686
v 41.294 21.019 -2.666
v 42.900 18.811 -2.666
v 41.379 21.019 2.647
v 42.900 18.840 2.647
v 42.402 21.019 3.975
v 42.900 20.282 3.975
v 42.900 21.019 4.407
v 42.341 23.291 -5.323
v 42.900 22.174 -5.323
v 42.900 23.291 -5.756
v 42.662 23.291 5.303
v 42.900 22.919 5.303
v 42.900 23.291 5.424
v 42.801 25.563 -5.323
v 42.900 25.563 -5.369
v 42.900 25.563 5.004
v 42.900 23.864 5.303
v 42.900 25.627 -5.323
v 42.900 27.518 -3.995
v 42.900 27.835 -3.769
v 42.900 27.835 3.676
v 42.900 27.361 3.975
v 42.900 29.263 -2.666
v 42.900 30.108 -1.860
v 42.900 30.108 1.938
v 42.900 29.356 2.647
v 42.900 30.732 -1.338
v 42.900 31.357 -0.010
v 42.900 30.805 1.318
v 42.540 39.197 11.944
v 42.900 38.511 11.944
v 42.900 39.197 10.925
v 42.900 39.197 13.017
v 42.498 41.469 11.944
v 42.900 41.469 10.693
v 42.900 41.469 12.417
v 42.900 41.796 11.944
v 44.356 -35.788 23.898
v 44.531 -36.046 23.898
v 44.531 -35.788 23.741
v 43.189 -35.788 25.226
v 44.531 -37.106 25.226
v 44.531 -37.372 26.554
v 44.531 -37.335 27.883
v 44.531 -37.194 29.211
v 44.531 -36.980 30.539
v 44.531 -36.703 31.867
v 43.386 -35.788 33.196
v 44.531 -36.392 33.196
v 44.154 -33.516 23.898
v 44.531 -33.516 23.509
v 43.168 -33.516 25.226
v 44.531 -31.493 23.898
v 44.531 -31.244 23.952
v 43.609 -31.244 25.226
v 42.929 -31.244 26.554
v 44.498 -28.971 25.226
v 44.531 -28.971 25.178
v 43.820 -28.971 26.554
v 43.279 -28.971 27.883
v 44.531 -28.909 25.226
v 44.531 -27.756 26.554
v 44.531 -27.044 27.883
v 44.371 -26.699 29.211
v 44.531 -26.699 28.728
v 44.013 -26.699 30.539
v 43.670 -26.699 31.867
v 43.373 -26.699 33.196
v 44.531 -26.493 29.211
v 44.531 -26.096 30.539
v 44.531 -25.772 31.867
v 44.531 -25.582 33.196
v 44.219 16.474 -0.010
v 44.531 16.099 -0.010
v 44.531 16.474 -0.991
v 44.531 16.474 1.009
v 42.995 18.746 -2.666
v 44.531 17.579 -2.666
v 44.531 18.746 -3.801
v 44.531 16.575 -1.338
v 44.531 16.562 1.318
v 43.048 18.746 2.647
v 44.531 17.633 2.647
v 44.531 18.746 3.534
v 44.531 18.977 -3.995
v 44.531 21.019 -5.220
v 44.531 19.430 3.975
v 44.531 21.019 4.662
v 44.531 21.355 -5.323
v 44.531 23.291 -5.757
v 43.348 23.291 5.303
v 44.531 23.291 5.022
v 44.531 24.632 -5.323
v 43.137 25.563 -5.323
v 44.531 25.563 -5.050
v 44.531 25.563 4.414
v 44.531 27.058 -3.995
v 44.531 27.835 -3.421
v 44.531 27.835 3.268
v 44.531 26.537 3.975
v 44.531 28.848 -2.666
v 44.531 30.108 -1.450
v 44.531 30.108 1.505
v 44.531 28.878 2.647
v 44.531 30.242 -1.338
v 44.531 30.865 -0.010
v 44.531 30.312 1.318
v 44.295 36.924 10.616
v 44.531 36.627 10.616
v 44.531 36.924 10.399
v 43.606 36.924 11.944
v 44.531 35.530 11.944
v 43.778 36.924 13.272
v 44.531 35.534 13.272
v 44.531 36.924 14.531
v 43.074 39.197 10.616
v 44.531 39.197 9.690
v 43.014 39.197 13.272
v 44.531 39.197 14.483
v 43.224 41.469 10.616
v 44.531 41.469 10.528
v 44.531 41.469 12.850
v 44.531 41.171 13.272
v 44.531 41.548 10.616
v 44.531 41.906 11.944
v 46.162 -36.419 23.898
v 46.162 -35.788 23.361
v 46.162 -37.261 25.226
v 46.162 -37.610 26.554
v 46.162 -37.724 27.883
v 46.162 -37.678 29.211
v 46.162 -37.510 30.539
v 46.162 -37.256 31.867
v 46.162 -36.964 33.196
v 46.113 -33.516 22.570
v 46.162 -33.643 22.570
v 46.162 -33.516 22.540
v 46.162 -33.176 22.570
v 44.592 -31.244 23.898
v 46.162 -31.244 22.728
v 45.808 -28.971 23.898
v 46.162 -28.971 23.578
v 46.162 -28.474 23.898
v 46.162 -26.888 25.226
v 45.395 -26.699 26.554
v 46.162 -26.699 25.448
v 44.812 -26.699 27.883
v 46.162 -25.797 26.554
v 46.162 -25.154 27.883
v 46.162 -24.744 29.211
v 46.162 -24.447 30.539
v 46.008 -24.427 31.867
v 46.162 -24.427 30.705
v 46.086 -24.427 33.196
v 46.162 -24.293 31.867
v 46.162 -24.371 33.196
v 44.768 16.474 -1.338
v 46.162 15.849 -1.338
v 46.162 16.474 -2.199
v 46.162 15.467 -0.010
v 44.751 16.474 1.318
v 46.162 15.891 1.318
v 46.162 16.474 2.019
v 45.481 18.746 -3.995
v 46.162 18.543 -3.995
v 46.162 18.746 -4.123
v 46.162 16.889 -2.666
v 46.162 17.133 2.647
v 46.162 18.746 3.667
v 46.162 21.019 -4.952
v 46.162 19.632 3.975
v 46.162 21.019 4.322
v 45.465 23.291 -5.323
v 46.162 23.291 -4.967
v 46.162 23.291 4.296
v 46.162 25.435 -3.995
v 46.092 25.563 -3.995
v 46.162 25.563 -3.940
v 45.382 25.563 3.975
v 46.162 25.563 3.503
v 46.162 24.202 3.975
v 46.162 27.340 -2.666
v 45.673 27.835 -2.666
v 46.162 27.835 -2.256
v 45.604 27.835 2.647
v 46.162 27.835 2.216
v 46.162 27.226 2.647
v 46.162 28.942 -1.338
v 44.698 30.108 -1.338
v 46.162 29.532 -0.010
v 45.456 30.108 -0.010
v 46.162 28.989 1.318
v 44.784 30.108 1.318
v 46.112 32.380 13.272
v 46.162 32.304 13.272
v 46.162 32.380 13.015
v 46.162 32.380 13.697
v 45.793 34.652 10.616
v 46.162 34.153 10.616
v 46.162 34.652 10.234
v 45.001 34.652 11.944
v 46.162 32.826 11.944
v 44.910 34.652 13.272
v 46.162 32.724 14.600
v 45.367 34.652 14.600
v 46.162 34.652 15.701
v 46.162 36.924 9.331
v 44.591 36.924 14.600
v 46.162 36.924 15.658
v 46.162 39.197 9.379
v 44.990 39.197 14.600
v 46.162 39.197 14.846
v 46.162 40.931 10.616
v 44.782 41.469 10.616
v 46.162 41.404 11.944
v 45.966 41.469 11.944
v 46.162 41.008 13.272
v 46.162 39.646 14.600
v 47.794 -36.049 23.898
v 47.794 -35.788 23.671
v 47.794 -37.011 25.226
v 47.794 -37.522 26.554
v 47.794 -37.765 27.883
v 47.794 -37.822 29.211
v 47.794 -37.756 30.539
v 47.794 -37.591 31.867
v 47.794 -37.353 33.196
v 47.794 -33.948 22.570
v 47.794 -33.516 22.400
v 46.649 -31.244 22.570
v 47.794 -31.244 22.181
v 47.794 -29.843 22.570
v 47.794 -28.971 22.822
v 47.794 -27.175 23.898
v 46.400 -26.699 25.226
v 47.794 -26.699 24.239
v 47.794 -25.550 25.226
v 47.776 -24.427 26.554
v 47.794 -24.427 26.536
v 46.963 -24.427 27.883
v 46.519 -24.427 29.211
v 46.190 -24.427 30.539
v 47.794 -24.413 26.554
v 47.794 -23.700 27.883
v 47.794 -23.312 29.211
v 47.794 -23.214 30.539
v 47.794 -23.432 31.867
v 47.794 -24.045 33.196
v 47.794 15.414 -1.338
v 47.794 16.474 -2.635
v 47.794 15.019 -0.010
v 47.794 15.487 1.318
v 47.794 16.474 2.338
v 46.831 18.746 -3.995
v 47.794 18.746 -3.798
v 47.794 16.517 -2.666
v 47.794 17.000 2.647
v 47.794 18.746 3.343
v 47.794 20.038 -3.995
v 47.794 21.019 -4.111
v 47.027 21.019 3.975
v 47.794 21.019 3.624
v 47.794 21.530 -3.995
v 47.407 23.291 -3.995
v 47.794 23.291 -3.639
v 46.774 23.291 3.975
v 47.794 23.291 3.308
v 47.794 24.901 -2.666
v 47.465 25.563 -2.666
v 47.794 25.563 -2.261
v 47.355 25.563 2.647
v 47.794 25.563 2.189
v 47.794 24.708 2.647
v 47.794 26.645 -1.338
v 46.971 27.835 -1.338
v 47.794 27.273 -0.010
v 47.412 27.835 -0.010
v 47.794 26.675 1.318
v 46.997 27.835 1.318
v 47.684 30.108 11.944
v 47.794 29.963 11.944
v 47.794 30.108 11.693
v 47.321 30.108 13.272
v 47.794 29.468 13.272
v 47.302 30.108 14.600
v 47.794 29.444 14.600
v 47.735 30.108 15.929
v 47.794 30.030 15.929
v 47.794 30.108 16.013
v 47.207 32.380 10.616
v 47.794 31.384 10.616
v 47.794 32.380 9.925
v 46.396 32.380 11.944
v 46.282 32.380 14.600
v 46.952 32.380 15.929
v 47.794 32.380 16.713
v 47.477 34.652 9.288
v 47.794 34.095 9.288
v 47.794 34.652 9.070
v 46.458 34.652 15.929
v 47.794 34.652 16.594
v 46.329 36.924 9.288
v 47.794 36.924 8.868
v 47.477 36.924 15.929
v 47.794 36.924 15.986
v 47.794 38.309 9.288
v 47.794 39.197 9.709
v 47.794 39.197 14.761
v 47.794 37.087 15.929
v 47.794 40.185 10.616
v 47.794 40.726 11.944
v 47.794 40.496 13.272
v 47.794 39.438 14.600
v 48.377 -35.788 23.898
v 49.425 -35.788 24.485
v 49.425 -36.426 25.226
v 49.425 -37.130 26.554
v 49.425 -37.517 27.883
v 49.425 -37.708 29.211
v 49.425 -37.748 30.539
v 49.425 -37.717 31.867
v 49.425 -37.603 33.196
v 48.500 -33.516 22.570
v 49.425 -33.516 22.864
v 49.425 -35.209 23.898
v 49.425 -32.546 22.570
v 49.425 -31.244 22.273
v 49.392 -28.971 22.570
v 49.425 -28.971 22.564
v 49.425 -28.958 22.570
v 48.762 -26.699 23.898
v 49.425 -26.699 23.661
v 49.425 -26.351 23.898
v 49.425 -24.672 25.226
v 49.425 -24.427 25.460
v 49.425 -23.483 26.554
v 49.425 -22.647 27.883
v 49.425 -22.239 29.211
v 49.425 -22.493 30.539
v 49.425 -23.280 31.867
v 49.425 -24.323 33.196
v 49.077 -15.338 -14.620
v 49.425 -15.890 -14.620
v 49.425 -15.338 -14.926
v 48.243 -15.338 -13.292
v 49.425 -16.912 -13.292
v 49.425 -15.338 -12.395
v 49.425 -14.917 -14.620
v 49.425 -14.284 -13.292
v 48.995 14.202 -0.010
v 49.425 13.920 -0.010
v 49.425 14.202 -1.013
v 49.425 14.202 0.953
v 49.425 14.428 -1.338
v 49.425 16.474 -2.432
v 49.425 14.476 1.318
v 49.425 16.474 2.216
v 49.425 17.634 -2.666
v 49.425 18.746 -2.838
v 49.281 18.746 2.647
v 49.425 18.746 2.560
v 47.955 21.019 -3.995
v 49.425 21.019 -2.735
v 49.262 21.019 2.647
v 49.425 21.019 2.498
v 49.425 21.197 -2.666
v 48.800 23.291 -2.666
v 49.425 23.291 -1.869
v 48.660 23.291 2.647
v 49.425 23.291 1.793
v 49.425 23.949 -1.338
v 48.577 25.563 -1.338
v 49.425 24.673 -0.010
v 48.990 25.563 -0.010
v 49.425 23.945 1.318
v 48.586 25.563 1.318
v 48.603 30.108 10.616
v 49.425 29.281 10.616
v 49.425 30.108 9.686
v 49.425 28.421 11.944
v 49.425 28.005 13.272
v 49.425 28.088 14.600
v 49.425 28.845 15.929
v 49.425 30.108 16.928
v 48.723 32.380 9.288
v 49.425 31.117 9.288
v 49.425 32.380 8.810
v 49.425 32.380 17.166
v 49.425 34.652 8.553
v 49.425 34.652 16.792
v 49.425 36.924 9.019
v 49.425 36.924 15.948
v 49.425 37.498 9.288
v 49.425 39.170 10.616
v 49.385 39.197 10.616
v 49.425 39.197 10.668
v 48.388 39.197 14.600
v 49.425 39.197 13.981
v 49.425 38.824 14.600
v 49.425 36.969 15.929
v 49.425 39.791 11.944
v 49.425 39.669 13.272
v 50.662 -35.788 25.226
v 51.056 -35.788 25.563
v 51.056 -36.447 26.554
v 51.056 -36.996 27.883
v 51.056 -37.314 29.211
v 51.056 -37.496 30.539
v 51.056 -37.567 31.867
v 51.056 -37.515 33.196
v 51.056 -33.956 23.898
v 51.056 -33.516 23.644
v 51.056 -35.534 25.226
v 50.246 -31.244 22.570
v 51.056 -31.244 22.979
v 49.452 -28.971 22.570
v 51.056 -28.971 23.063
v 51.056 -26.699 23.755
v 51.056 -26.447 23.898
v 51.056 -24.456 25.226
v 51.056 -24.427 25.252
v 49.645 -24.427 33.196
v 51.056 -24.427 32.359
v 51.056 -25.251 33.196
v 51.056 -23.297 26.554
v 51.056 -22.505 27.883
v 51.056 -22.363 29.211
v 51.056 -23.011 30.539
v 51.056 -24.017 31.867
v 51.056 -15.853 -14.620
v 51.056 -15.338 -15.005
v 51.056 -16.362 -13.292
v 51.056 -15.338 -12.369
v 51.056 -14.464 -14.620
v 51.056 -13.763 -13.292
v 50.530 14.202 -0.010
v 50.611 16.474 -1.338
v 51.056 16.474 -0.309
v 51.056 15.562 -0.010
v 50.555 16.474 1.318
v 51.056 16.474 0.264
v 49.600 18.746 -2.666
v 50.696 18.746 -1.338
v 51.056 18.746 -0.182
v 50.644 18.746 1.318
v 51.056 18.746 0.143
v 49.490 21.019 -2.666
v 50.483 21.019 -1.338
v 51.056 19.104 -0.010
v 50.844 21.019 -0.010
v 50.447 21.019 1.318
v 49.832 23.291 -1.338
v 50.215 23.291 -0.010
v 49.818 23.291 1.318
v 50.031 27.835 13.272
v 51.056 27.604 13.272
v 51.056 27.835 12.268
v 50.431 27.835 14.600
v 51.056 27.715 14.600
v 51.056 27.835 14.868
v 50.819 30.108 9.288
v 51.056 30.026 9.288
v 51.056 30.108 9.211
v 51.056 28.803 10.616
v 51.056 27.949 11.944
v 51.056 28.715 15.929
v 51.056 30.108 16.828
v 51.056 32.380 8.544
v 51.056 32.380 17.051
v 51.056 34.652 8.717
v 51.056 34.652 16.601
v 51.056 36.183 9.288
v 50.204 36.924 9.288
v 51.056 36.924 9.708
v 49.527 36.924 15.929
v 51.056 36.924 15.438
v 51.056 36.263 15.929
v 51.056 37.993 10.616
v 51.056 38.653 11.944
v 50.280 39.197 11.944
v 51.056 38.627 13.272
v 50.150 39.197 13.272
v 51.056 37.936 14.600
v 52.195 -35.788 26.554
v 52.688 -35.788 27.190
v 52.688 -36.157 27.883
v 52.688 -36.603 29.211
v 52.688 -36.863 30.539
v 52.688 -36.970 31.867
v 52.688 -36.925 33.196
v 51.506 -33.516 23.898
v 52.688 -33.516 24.877
v 52.688 -34.021 25.226
v 52.688 -35.352 26.554
v 52.440 -31.244 23.898
v 52.688 -31.244 24.151
v 52.338 -28.971 23.898
v 52.688 -28.971 24.248
v 51.354 -26.699 23.898
v 52.688 -26.699 24.923
v 52.688 -26.172 25.226
v 52.688 -24.623 26.554
v 52.552 -24.427 26.554
v 52.688 -24.427 26.886
v 52.630 -24.427 30.539
v 52.688 -24.427 30.398
v 52.688 -24.500 30.539
v 52.688 -25.480 31.867
v 51.610 -24.427 31.867
v 52.688 -26.572 33.196
v 52.688 -23.974 27.883
v 52.688 -23.947 29.211
v 51.352 -15.338 -14.620
v 51.643 -15.338 -13.292
v 51.123 16.474 -0.010
v 51.097 18.746 -0.010
v 51.889 27.835 13.272
v 51.441 27.835 14.600
v 51.288 30.108 9.288
v 52.688 30.108 9.893
v 52.688 29.514 10.616
v 52.688 28.697 11.944
v 52.688 28.255 13.272
v 52.688 28.590 14.600
v 52.688 29.901 15.929
v 52.688 30.108 16.070
v 52.688 31.954 9.288
v 52.688 32.380 9.146
v 52.688 32.380 16.423
v 52.688 33.407 9.288
v 52.338 34.652 9.288
v 52.688 34.652 9.515
v 52.688 34.652 15.950
v 52.688 36.389 10.616
v 52.231 36.924 10.616
v 52.688 36.924 11.382
v 52.309 36.924 14.600
v 52.688 36.924 13.924
v 52.688 36.561 14.600
v 52.688 34.704 15.929
v 52.688 37.234 11.944
v 52.688 37.267 13.272
v 53.209 -35.788 27.883
v 53.819 -35.788 29.211
v 54.157 -35.788 30.539
v 54.264 -35.788 31.867
v 54.152 -35.788 33.196
v 53.088 -33.516 25.226
v 54.088 -33.516 26.554
v 54.319 -33.516 27.050
v 54.319 -34.275 27.883
v 54.319 -35.062 29.211
v 54.319 -35.535 30.539
v 54.319 -35.694 31.867
v 54.319 -35.463 33.196
v 53.738 -31.244 25.226
v 54.319 -31.244 26.193
v 54.319 -32.429 26.554
v 53.625 -28.971 25.226
v 54.319 -28.971 26.423
v 54.269 -28.971 33.196
v 54.319 -28.971 33.078
v 54.319 -29.147 33.196
v 52.995 -26.699 25.226
v 54.319 -28.659 26.554
v 53.833 -26.699 26.554
v 54.319 -27.032 27.883
v 54.232 -26.699 27.883
v 54.319 -26.699 28.908
v 54.185 -26.699 30.539
v 54.319 -26.699 29.472
v 54.319 -27.051 30.539
v 54.319 -27.998 31.867
v 53.680 -26.699 31.867
v 52.816 -26.699 33.196
v 53.064 -24.427 27.883
v 54.319 -26.641 29.211
v 53.096 -24.427 29.211
v 53.338 30.108 10.616
v 53.980 30.108 11.944
v 54.134 30.108 13.272
v 53.833 30.108 14.600
v 52.865 30.108 15.929
v 52.884 32.380 9.288
v 54.137 32.380 10.616
v 54.319 32.380 11.009
v 54.319 31.340 11.944
v 54.319 30.918 13.272
v 54.319 32.125 14.600
v 53.405 32.380 15.929
v 54.319 32.380 14.729
v 53.803 34.652 10.616
v 54.319 34.652 11.718
v 54.016 34.652 14.600
v 54.319 34.652 13.728
v 54.319 33.011 14.600
v 52.723 34.652 15.929
v 54.319 34.844 11.944
v 52.981 36.924 11.944
v 54.319 34.971 13.272
v 53.016 36.924 13.272
v 54.742 -33.516 27.883
v 55.133 -33.516 29.211
v 55.292 -33.516 30.539
v 55.263 -33.516 31.867
v 55.047 -33.516 33.196
v 54.556 -31.244 26.554
v 55.078 -31.244 27.883
v 55.341 -31.244 29.211
v 55.394 -31.244 30.539
v 55.246 -31.244 31.867
v 54.902 -31.244 33.196
v 54.402 -28.971 26.554
v 54.873 -28.971 27.883
v 55.078 -28.971 29.211
v 55.039 -28.971 30.539
v 54.766 -28.971 31.867
v 54.349 -26.699 29.211
v 54.700 32.380 11.944
v 54.802 32.380 13.272
v 54.407 32.380 14.600
v 54.412 34.652 11.944
v 54.475 34.652 13.272
f 3 2 1
f 5 4 1
f 5 1 2
f 6 4 5
f 3 1 7
f 3 7 8
f 9 1 4
f 7 1 9
f 4 6 10
f 4 10 9
f 11 8 7
f 11 7 9
f 11 9 12
f 12 9 10
f 3 13 2
f 14 5 2
f 14 2 13
f 14 6 5
f 16 15 13
f 3 16 13
f 8 16 3
f 18 17 15
f 17 13 15
f 17 14 13
f 17 10 6
f 17 6 14
f 19 16 8
f 19 8 11
f 12 17 18
f 19 12 18
f 11 12 19
f 17 12 10
f 22 21 20
f 23 20 21
f 24 22 20
f 24 20 23
f 16 25 15
f 25 18 15
f 19 25 16
f 25 19 18
f 28 27 26
f 29 26 27
f 28 26 30
f 28 30 31
f 26 29 32
f 26 32 30
f 33 31 30
f 33 30 32
f 36 35 34
f 38 37 34
f 38 34 35
f 39 37 38
f 42 41 40
f 40 41 36
f 40 36 34
f 22 40 34
f 21 22 34
f 21 34 23
f 34 43 23
f 34 37 43
f 37 39 44
f 45 37 44
f 43 37 45
f 46 45 44
f 47 42 40
f 49 47 48
f 48 47 24
f 47 40 24
f 40 22 24
f 23 43 24
f 43 48 24
f 43 50 48
f 45 52 51
f 50 45 51
f 43 45 50
f 52 45 46
f 53 49 48
f 53 48 50
f 53 50 54
f 54 50 51
f 56 55 27
f 56 27 28
f 58 57 29
f 27 58 29
f 55 58 27
f 59 57 58
f 31 56 28
f 31 60 56
f 61 32 57
f 57 32 29
f 57 59 62
f 57 62 61
f 63 60 31
f 63 31 33
f 33 32 61
f 64 33 61
f 63 33 64
f 64 61 62
f 66 65 35
f 66 35 36
f 35 67 38
f 65 67 35
f 69 68 39
f 38 69 39
f 67 69 38
f 70 68 69
f 72 71 41
f 72 41 42
f 36 41 66
f 66 41 71
f 68 44 39
f 74 73 46
f 74 46 44
f 70 74 44
f 68 70 44
f 75 73 74
f 76 72 42
f 76 42 47
f 47 49 76
f 76 49 77
f 78 51 52
f 79 78 52
f 79 52 46
f 80 79 46
f 73 80 46
f 80 73 75
f 81 77 49
f 81 49 53
f 82 53 54
f 82 81 53
f 54 51 78
f 83 54 78
f 82 54 83
f 83 78 79
f 85 84 55
f 85 55 56
f 55 86 58
f 84 86 55
f 59 58 86
f 59 86 87
f 60 85 56
f 60 88 85
f 87 62 59
f 89 62 87
f 90 88 60
f 90 60 63
f 92 90 91
f 90 64 91
f 90 63 64
f 93 91 64
f 62 93 64
f 89 93 62
f 94 92 91
f 94 91 93
f 96 95 65
f 96 65 66
f 65 97 67
f 95 97 65
f 97 99 98
f 69 97 98
f 67 97 69
f 98 70 69
f 101 100 71
f 101 71 72
f 66 71 96
f 96 71 100
f 99 102 98
f 102 104 103
f 102 103 74
f 98 102 74
f 70 98 74
f 103 75 74
f 105 101 72
f 105 72 76
f 76 77 105
f 105 77 106
f 109 108 107
f 109 107 104
f 104 107 103
f 107 79 103
f 79 80 103
f 103 80 75
f 110 106 77
f 110 77 81
f 111 81 82
f 111 110 81
f 83 107 108
f 111 83 108
f 82 83 111
f 107 83 79
f 85 112 84
f 113 86 84
f 113 84 112
f 113 87 86
f 88 114 112
f 88 112 85
f 112 115 113
f 112 114 115
f 115 89 87
f 115 87 113
f 90 114 88
f 114 90 92
f 116 114 92
f 115 114 116
f 116 93 89
f 116 89 115
f 94 116 92
f 116 94 93
f 96 117 95
f 118 97 95
f 118 95 117
f 118 99 97
f 101 119 100
f 117 96 100
f 119 117 100
f 120 117 119
f 117 121 118
f 117 120 121
f 122 102 99
f 118 122 99
f 121 122 118
f 122 104 102
f 105 119 101
f 119 105 106
f 123 119 106
f 120 119 123
f 120 124 121
f 120 123 124
f 124 108 109
f 122 124 109
f 121 124 122
f 122 109 104
f 110 123 106
f 123 110 111
f 123 111 124
f 124 111 108
f 127 126 125
f 129 128 125
f 129 125 126
f 131 130 128
f 131 128 129
f 132 130 131
f 127 125 133
f 127 133 134
f 135 125 128
f 133 125 135
f 136 128 130
f 135 128 136
f 130 132 137
f 130 137 136
f 138 134 133
f 138 133 135
f 138 135 139
f 139 135 136
f 139 136 140
f 140 136 137
f 143 142 141
f 145 144 141
f 145 141 142
f 143 141 146
f 143 146 147
f 148 141 144
f 146 141 148
f 149 147 146
f 149 146 148
f 149 148 150
f 153 152 151
f 155 154 151
f 155 151 152
f 157 156 154
f 157 154 155
f 158 156 157
f 161 160 159
f 163 162 159
f 163 159 160
f 162 163 153
f 151 162 153
f 164 162 151
f 165 151 154
f 164 151 165
f 166 154 156
f 165 154 166
f 156 158 167
f 168 156 167
f 166 156 168
f 170 169 168
f 170 168 167
f 171 169 170
f 161 159 172
f 161 172 173
f 174 159 162
f 172 159 174
f 127 174 126
f 174 164 126
f 174 162 164
f 126 164 129
f 129 164 165
f 129 165 131
f 131 165 166
f 131 166 132
f 166 175 132
f 166 168 175
f 176 168 169
f 175 168 176
f 169 171 177
f 169 177 176
f 178 173 172
f 180 179 178
f 172 180 178
f 174 180 172
f 134 180 127
f 127 180 174
f 181 137 175
f 175 137 132
f 176 183 182
f 181 176 182
f 175 176 181
f 183 176 177
f 184 179 180
f 186 184 185
f 185 184 138
f 184 180 138
f 180 134 138
f 139 187 138
f 138 187 185
f 140 188 139
f 139 188 187
f 189 188 140
f 189 140 137
f 190 189 137
f 181 190 137
f 190 181 182
f 191 186 185
f 191 185 187
f 191 187 192
f 192 187 188
f 192 188 193
f 193 188 189
f 196 195 194
f 198 197 194
f 198 194 195
f 200 199 197
f 200 197 198
f 202 201 199
f 202 199 200
f 204 203 201
f 204 201 202
f 205 203 204
f 196 194 206
f 196 206 207
f 208 194 197
f 206 194 208
f 209 197 199
f 208 197 209
f 210 199 201
f 209 199 210
f 143 210 142
f 210 203 142
f 210 201 203
f 205 211 203
f 211 142 203
f 211 145 142
f 212 207 206
f 214 213 212
f 206 214 212
f 208 214 206
f 215 208 209
f 214 208 215
f 216 209 210
f 215 209 216
f 147 216 143
f 143 216 210
f 217 213 214
f 219 218 217
f 214 219 217
f 215 219 214
f 220 215 216
f 219 215 220
f 149 221 147
f 221 216 147
f 221 220 216
f 150 222 149
f 149 222 221
f 223 218 219
f 223 219 220
f 223 220 224
f 224 220 221
f 224 221 225
f 225 221 222
f 225 222 226
f 229 228 227
f 231 230 227
f 231 227 228
f 233 232 230
f 233 230 231
f 234 232 233
f 237 236 235
f 239 238 235
f 239 235 236
f 238 239 229
f 238 229 227
f 153 238 227
f 152 153 227
f 152 227 155
f 155 227 230
f 155 230 157
f 157 230 232
f 241 240 158
f 241 158 157
f 234 241 157
f 232 234 157
f 243 242 240
f 243 240 241
f 244 242 243
f 247 246 245
f 245 246 237
f 245 237 235
f 161 245 235
f 160 161 235
f 160 235 163
f 163 235 238
f 163 238 153
f 240 167 158
f 167 240 170
f 170 240 242
f 249 248 171
f 249 171 170
f 244 249 170
f 242 244 170
f 250 248 249
f 247 245 251
f 247 251 252
f 173 251 161
f 161 251 245
f 254 253 248
f 253 171 248
f 253 177 171
f 254 248 250
f 255 252 251
f 255 251 173
f 178 255 173
f 256 255 178
f 178 179 256
f 256 179 257
f 259 258 183
f 183 258 182
f 183 177 253
f 183 253 259
f 260 257 179
f 260 179 184
f 184 186 260
f 260 186 261
f 263 262 190
f 190 262 189
f 190 182 258
f 190 258 263
f 264 261 186
f 264 186 191
f 265 191 192
f 265 264 191
f 266 192 193
f 266 265 192
f 193 189 262
f 193 262 266
f 269 268 267
f 270 267 268
f 269 267 271
f 269 271 272
f 267 270 273
f 267 273 271
f 274 272 271
f 274 271 273
f 277 276 275
f 279 278 275
f 279 275 276
f 195 196 278
f 279 195 278
f 280 195 279
f 195 281 198
f 280 281 195
f 198 282 200
f 281 282 198
f 200 283 202
f 282 283 200
f 202 284 204
f 283 284 202
f 286 285 205
f 204 286 205
f 284 286 204
f 277 275 287
f 277 287 288
f 289 275 278
f 287 275 289
f 207 289 196
f 196 289 278
f 285 211 205
f 290 288 287
f 292 291 290
f 287 292 290
f 289 292 287
f 212 293 207
f 293 289 207
f 293 292 289
f 213 293 212
f 291 292 294
f 291 294 295
f 296 292 293
f 294 292 296
f 217 297 213
f 297 293 213
f 297 296 293
f 218 297 217
f 298 295 294
f 298 294 296
f 298 296 299
f 299 296 297
f 299 297 300
f 302 300 301
f 301 300 223
f 300 297 223
f 297 218 223
f 224 303 223
f 223 303 301
f 225 304 224
f 224 304 303
f 226 305 225
f 225 305 304
f 306 302 301
f 306 301 303
f 306 303 307
f 307 303 304
f 307 304 308
f 308 304 305
f 308 305 309
f 312 311 310
f 313 310 311
f 316 315 314
f 228 229 314
f 315 228 314
f 317 228 315
f 310 231 312
f 231 317 312
f 231 228 317
f 313 318 310
f 318 231 310
f 318 233 231
f 320 319 234
f 233 320 234
f 318 320 233
f 321 319 320
f 323 322 236
f 323 236 237
f 314 239 316
f 239 322 316
f 239 236 322
f 239 314 229
f 319 241 234
f 321 324 319
f 324 241 319
f 324 243 241
f 244 243 324
f 244 324 325
f 327 326 246
f 327 246 247
f 237 246 323
f 323 246 326
f 249 244 328
f 244 329 328
f 244 325 329
f 328 250 249
f 252 331 330
f 327 252 330
f 247 252 327
f 331 332 330
f 328 329 254
f 329 253 254
f 329 333 253
f 328 254 250
f 255 331 252
f 334 332 331
f 255 334 331
f 256 334 255
f 256 257 334
f 334 257 335
f 337 336 259
f 259 336 258
f 259 253 333
f 259 333 337
f 338 335 257
f 338 257 260
f 260 261 338
f 338 261 339
f 341 340 263
f 263 340 262
f 263 258 336
f 263 336 341
f 342 339 261
f 342 261 264
f 343 264 265
f 343 342 264
f 344 265 266
f 344 343 265
f 266 262 340
f 266 340 344
f 347 346 345
f 349 348 345
f 349 345 346
f 351 350 348
f 351 348 349
f 352 350 351
f 347 345 353
f 347 353 354
f 269 353 268
f 353 348 268
f 353 345 348
f 268 348 270
f 348 355 270
f 348 350 355
f 350 352 356
f 350 356 355
f 354 353 357
f 354 357 358
f 272 357 269
f 269 357 353
f 360 359 355
f 359 270 355
f 359 273 270
f 360 355 356
f 361 358 357
f 361 357 272
f 274 361 272
f 362 361 274
f 274 273 359
f 274 359 362
f 364 363 276
f 364 276 277
f 276 365 279
f 363 365 276
f 279 366 280
f 365 366 279
f 280 367 281
f 366 367 280
f 281 368 282
f 367 368 281
f 282 369 283
f 368 369 282
f 283 370 284
f 369 370 283
f 284 371 286
f 370 371 284
f 374 373 372
f 373 364 372
f 364 288 372
f 364 277 288
f 375 374 372
f 377 375 376
f 376 375 290
f 375 372 290
f 372 288 290
f 291 376 290
f 377 376 378
f 377 378 379
f 295 378 291
f 291 378 376
f 380 379 378
f 380 378 295
f 298 380 295
f 381 380 298
f 383 381 382
f 381 299 382
f 381 298 299
f 300 384 299
f 299 384 382
f 302 384 300
f 385 383 382
f 385 382 384
f 385 384 386
f 386 384 302
f 306 386 302
f 387 386 306
f 388 306 307
f 388 387 306
f 390 388 389
f 388 308 389
f 388 307 308
f 309 391 308
f 308 391 389
f 392 390 389
f 392 389 391
f 392 391 393
f 396 395 394
f 311 312 394
f 395 311 394
f 397 311 395
f 399 398 313
f 311 399 313
f 397 399 311
f 400 398 399
f 403 402 401
f 315 316 401
f 402 315 401
f 404 315 402
f 394 317 396
f 317 404 396
f 317 315 404
f 317 394 312
f 398 318 313
f 400 405 398
f 405 318 398
f 405 320 318
f 321 320 405
f 321 405 406
f 403 401 322
f 323 403 322
f 407 403 323
f 322 401 316
f 406 408 321
f 321 408 324
f 325 324 408
f 325 408 409
f 327 410 326
f 410 411 326
f 411 323 326
f 411 407 323
f 409 329 325
f 412 329 409
f 330 410 327
f 414 413 332
f 332 413 330
f 413 411 330
f 411 410 330
f 414 415 413
f 418 417 416
f 412 418 416
f 333 412 416
f 329 412 333
f 334 414 332
f 420 419 335
f 335 419 334
f 419 415 334
f 415 414 334
f 420 421 419
f 424 423 422
f 424 422 417
f 417 422 416
f 422 336 416
f 336 337 416
f 416 337 333
f 338 420 335
f 426 425 339
f 339 425 338
f 425 421 338
f 421 420 338
f 428 427 426
f 426 427 425
f 430 429 428
f 428 429 427
f 429 430 423
f 423 430 422
f 430 340 422
f 340 341 422
f 422 341 336
f 342 426 339
f 426 342 343
f 426 343 428
f 428 343 344
f 428 344 430
f 430 344 340
f 433 432 431
f 434 431 432
f 437 436 435
f 439 438 435
f 439 435 436
f 438 439 433
f 431 438 433
f 440 438 431
f 431 434 441
f 442 431 441
f 440 431 442
f 443 442 441
f 437 435 346
f 347 437 346
f 444 437 347
f 346 435 349
f 349 435 438
f 349 438 351
f 351 438 440
f 351 440 352
f 440 445 352
f 440 442 445
f 442 443 446
f 442 446 445
f 354 444 347
f 354 447 444
f 448 356 445
f 445 356 352
f 445 446 449
f 445 449 448
f 358 451 450
f 447 358 450
f 354 358 447
f 453 452 451
f 451 452 450
f 359 360 453
f 360 452 453
f 360 454 452
f 360 356 448
f 455 360 448
f 454 360 455
f 455 448 449
f 361 451 358
f 451 361 362
f 451 362 453
f 453 362 359
f 457 456 363
f 457 363 364
f 363 458 365
f 456 458 363
f 365 459 366
f 458 459 365
f 366 460 367
f 459 460 366
f 367 461 368
f 460 461 367
f 368 462 369
f 461 462 368
f 369 463 370
f 462 463 369
f 370 464 371
f 463 464 370
f 466 465 373
f 466 373 374
f 364 373 457
f 457 373 465
f 374 375 467
f 468 374 467
f 466 374 468
f 377 467 375
f 469 468 467
f 467 377 469
f 377 470 469
f 377 379 470
f 471 470 379
f 471 379 380
f 473 471 472
f 471 381 472
f 471 380 381
f 383 472 381
f 474 473 472
f 476 474 475
f 475 474 385
f 474 472 385
f 472 383 385
f 386 477 385
f 385 477 475
f 387 478 386
f 386 478 477
f 388 479 387
f 387 479 478
f 390 479 388
f 480 476 475
f 480 475 477
f 480 477 481
f 481 477 478
f 481 478 482
f 482 478 479
f 482 479 483
f 483 479 390
f 392 483 390
f 484 483 392
f 485 392 393
f 485 484 392
f 487 486 395
f 487 395 396
f 395 488 397
f 486 488 395
f 397 489 399
f 488 489 397
f 400 399 489
f 400 489 490
f 403 491 402
f 402 491 492
f 493 402 492
f 404 402 493
f 396 404 487
f 487 404 493
f 490 494 400
f 400 494 405
f 406 405 494
f 406 494 495
f 497 496 491
f 403 497 491
f 407 497 403
f 491 496 492
f 408 406 498
f 406 499 498
f 406 495 499
f 498 409 408
f 411 501 500
f 497 411 500
f 407 411 497
f 501 502 500
f 498 499 503
f 503 499 504
f 503 412 409
f 503 409 498
f 413 501 411
f 506 505 415
f 415 505 413
f 505 502 413
f 502 501 413
f 506 507 505
f 510 509 508
f 510 508 504
f 504 508 503
f 508 417 503
f 417 418 503
f 503 418 412
f 419 506 415
f 512 511 421
f 421 511 419
f 511 507 419
f 507 506 419
f 514 513 512
f 512 513 511
f 516 515 514
f 514 515 513
f 515 516 509
f 509 516 508
f 516 423 508
f 423 424 508
f 508 424 417
f 425 512 421
f 512 425 427
f 512 427 514
f 514 427 429
f 514 429 516
f 516 429 423
f 519 518 517
f 521 520 517
f 521 517 518
f 523 522 520
f 523 520 521
f 525 524 522
f 525 522 523
f 526 524 525
f 529 528 527
f 527 528 519
f 517 527 519
f 530 527 517
f 433 530 432
f 530 520 432
f 530 517 520
f 432 520 434
f 520 531 434
f 520 522 531
f 532 522 524
f 531 522 532
f 524 526 533
f 524 533 532
f 536 535 534
f 534 535 529
f 534 529 527
f 437 534 527
f 436 437 527
f 436 527 439
f 439 527 530
f 439 530 433
f 531 441 434
f 441 531 443
f 531 537 443
f 531 532 537
f 532 533 538
f 532 538 537
f 536 534 539
f 536 539 540
f 444 539 437
f 437 539 534
f 541 446 537
f 537 446 443
f 537 538 542
f 537 542 541
f 543 540 539
f 539 444 543
f 444 544 543
f 444 447 544
f 546 545 541
f 545 446 541
f 545 449 446
f 546 541 542
f 547 544 447
f 547 447 450
f 548 450 452
f 548 547 450
f 549 452 454
f 549 548 452
f 550 454 455
f 550 549 454
f 455 449 545
f 455 545 550
f 457 551 456
f 456 551 552
f 553 456 552
f 458 456 553
f 458 554 459
f 553 554 458
f 459 555 460
f 554 555 459
f 460 556 461
f 555 556 460
f 461 557 462
f 556 557 461
f 462 558 463
f 557 558 462
f 463 559 464
f 558 559 463
f 466 560 465
f 560 561 465
f 465 561 457
f 561 562 457
f 562 551 457
f 551 562 552
f 564 563 560
f 466 564 560
f 468 564 466
f 560 563 561
f 468 469 565
f 566 468 565
f 564 468 566
f 470 565 469
f 567 566 565
f 569 567 568
f 568 567 471
f 567 565 471
f 565 470 471
f 473 568 471
f 570 569 568
f 570 568 473
f 474 570 473
f 571 570 474
f 474 476 571
f 571 476 572
f 573 572 476
f 573 476 480
f 574 480 481
f 574 573 480
f 575 481 482
f 575 574 481
f 576 482 483
f 576 575 482
f 577 483 484
f 577 576 483
f 578 484 485
f 578 577 484
f 581 580 579
f 583 582 579
f 583 579 580
f 584 582 583
f 585 581 579
f 585 579 582
f 585 582 586
f 586 582 584
f 589 588 587
f 590 587 588
f 592 591 486
f 592 486 487
f 587 488 589
f 488 591 589
f 488 486 591
f 590 593 587
f 593 488 587
f 593 489 488
f 490 489 593
f 490 593 594
f 596 595 493
f 596 493 492
f 487 493 592
f 592 493 595
f 494 490 597
f 490 598 597
f 490 594 598
f 597 495 494
f 497 599 496
f 599 600 496
f 600 492 496
f 600 596 492
f 597 598 601
f 601 598 602
f 601 499 495
f 601 495 597
f 500 599 497
f 604 603 502
f 502 603 500
f 603 600 500
f 600 599 500
f 604 605 603
f 601 602 606
f 606 602 607
f 606 504 499
f 606 499 601
f 505 604 502
f 609 608 507
f 507 608 505
f 608 605 505
f 605 604 505
f 611 610 609
f 609 610 608
f 613 612 611
f 611 612 610
f 612 613 607
f 607 613 606
f 613 509 606
f 509 510 606
f 606 510 504
f 511 609 507
f 609 511 513
f 609 513 611
f 611 513 515
f 611 515 613
f 613 515 509
f 616 615 614
f 518 519 614
f 615 518 614
f 617 518 615
f 518 618 521
f 617 618 518
f 521 619 523
f 618 619 521
f 523 620 525
f 619 620 523
f 526 525 620
f 526 620 621
f 624 623 622
f 622 623 616
f 622 616 614
f 529 622 614
f 528 529 614
f 528 614 519
f 621 533 526
f 625 533 621
f 624 622 535
f 536 624 535
f 626 624 536
f 535 622 529
f 625 538 533
f 627 538 625
f 540 626 536
f 540 628 626
f 627 542 538
f 629 542 627
f 630 628 540
f 630 540 543
f 632 631 544
f 631 543 544
f 631 630 543
f 632 633 631
f 636 635 634
f 545 546 634
f 546 636 634
f 546 637 636
f 546 542 629
f 546 629 637
f 547 632 544
f 638 633 632
f 547 638 632
f 548 638 547
f 639 548 549
f 639 638 548
f 550 634 635
f 639 550 635
f 549 550 639
f 634 550 545
f 552 640 553
f 553 640 641
f 642 553 641
f 554 553 642
f 554 643 555
f 642 643 554
f 555 644 556
f 643 644 555
f 556 645 557
f 644 645 556
f 557 646 558
f 645 646 557
f 558 647 559
f 646 647 558
f 649 648 562
f 649 562 561
f 552 562 640
f 562 650 640
f 562 648 650
f 640 650 641
f 564 651 563
f 651 652 563
f 652 561 563
f 652 649 561
f 566 653 651
f 566 651 564
f 652 651 654
f 654 651 653
f 567 653 566
f 567 569 653
f 569 654 653
f 569 655 654
f 656 655 569
f 656 569 570
f 657 570 571
f 657 656 570
f 571 572 657
f 657 572 658
f 661 660 659
f 662 658 572
f 662 572 573
f 663 573 574
f 663 662 573
f 664 574 575
f 664 663 574
f 665 575 576
f 665 664 575
f 666 576 577
f 666 665 576
f 578 659 660
f 666 578 660
f 577 578 666
f 668 667 580
f 668 580 581
f 580 669 583
f 667 669 580
f 584 583 669
f 584 669 670
f 671 668 581
f 671 581 585
f 672 585 586
f 672 671 585
f 586 584 670
f 586 670 672
f 589 673 588
f 673 590 588
f 592 674 591
f 674 675 591
f 591 675 589
f 675 676 589
f 676 673 589
f 676 678 677
f 676 677 593
f 673 676 593
f 590 673 593
f 677 594 593
f 596 679 595
f 674 592 595
f 679 674 595
f 680 674 679
f 675 674 681
f 681 674 680
f 677 678 682
f 682 678 683
f 682 598 594
f 682 594 677
f 600 684 679
f 600 679 596
f 679 685 680
f 679 684 685
f 681 680 686
f 680 687 686
f 680 685 687
f 686 687 683
f 687 682 683
f 687 688 682
f 688 602 598
f 688 598 682
f 603 684 600
f 684 603 605
f 689 684 605
f 685 684 689
f 685 690 687
f 685 689 690
f 687 691 688
f 687 690 691
f 691 607 602
f 691 602 688
f 608 689 605
f 689 608 610
f 689 610 690
f 690 610 612
f 690 612 691
f 691 612 607
f 694 693 692
f 696 695 692
f 696 692 693
f 697 695 696
f 700 699 698
f 615 616 698
f 699 615 698
f 701 615 699
f 615 702 617
f 701 702 615
f 692 618 694
f 618 702 694
f 618 617 702
f 618 692 619
f 619 692 695
f 697 703 695
f 703 619 695
f 703 620 619
f 621 620 703
f 621 703 704
f 700 698 623
f 624 700 623
f 705 700 624
f 623 698 616
f 704 625 621
f 706 625 704
f 626 705 624
f 626 707 705
f 706 627 625
f 708 627 706
f 628 710 709
f 707 628 709
f 626 628 707
f 710 711 709
f 714 713 712
f 708 714 712
f 629 708 712
f 627 708 629
f 630 710 628
f 715 711 710
f 630 715 710
f 631 715 630
f 717 716 633
f 716 631 633
f 716 715 631
f 719 718 717
f 717 718 716
f 635 636 719
f 636 718 719
f 636 720 718
f 637 712 713
f 720 637 713
f 636 637 720
f 712 637 629
f 638 717 633
f 717 638 639
f 717 639 719
f 719 639 635
f 641 721 642
f 642 721 722
f 723 642 722
f 643 642 723
f 643 724 644
f 723 724 643
f 644 725 645
f 724 725 644
f 645 726 646
f 725 726 645
f 646 727 647
f 726 727 646
f 649 728 648
f 648 728 729
f 730 648 729
f 650 648 730
f 641 650 721
f 650 731 721
f 650 730 731
f 721 731 722
f 652 732 728
f 652 728 649
f 729 728 733
f 733 728 732
f 654 734 732
f 654 732 652
f 733 732 735
f 735 732 734
f 655 736 734
f 655 734 654
f 735 734 737
f 737 734 736
f 656 736 655
f 738 737 736
f 656 738 736
f 657 738 656
f 740 739 658
f 739 657 658
f 739 738 657
f 740 741 739
f 744 743 742
f 746 745 742
f 742 745 744
f 660 661 746
f 661 745 746
f 661 747 745
f 662 740 658
f 748 741 740
f 662 748 740
f 663 748 662
f 749 663 664
f 749 748 663
f 665 742 743
f 749 665 743
f 664 665 749
f 742 665 666
f 742 666 746
f 746 666 660
f 668 750 667
f 751 669 667
f 751 667 750
f 751 670 669
f 671 750 668
f 750 671 672
f 750 672 751
f 751 672 670
f 675 752 676
f 752 678 676
f 681 753 752
f 681 752 675
f 753 683 678
f 753 678 752
f 686 753 681
f 753 686 683
f 694 754 693
f 755 696 693
f 755 693 754
f 755 697 696
f 700 756 699
f 699 756 757
f 758 699 757
f 701 699 758
f 701 759 702
f 758 759 701
f 694 702 754
f 702 760 754
f 702 759 760
f 754 760 755
f 755 760 761
f 755 761 697
f 761 703 697
f 761 762 703
f 704 703 762
f 704 762 763
f 765 764 756
f 700 765 756
f 705 765 700
f 756 764 757
f 763 706 704
f 766 706 763
f 707 768 767
f 765 707 767
f 705 707 765
f 768 769 767
f 766 708 706
f 770 708 766
f 709 768 707
f 772 771 711
f 711 771 709
f 771 769 709
f 769 768 709
f 772 773 771
f 776 775 774
f 713 714 774
f 714 776 774
f 714 777 776
f 714 708 770
f 714 770 777
f 715 772 711
f 778 773 772
f 715 778 772
f 716 778 715
f 779 716 718
f 779 778 716
f 720 774 775
f 779 720 775
f 718 720 779
f 774 720 713
f 722 780 723
f 781 724 723
f 781 723 780
f 782 725 724
f 782 724 781
f 783 726 725
f 783 725 782
f 784 727 726
f 784 726 783
f 729 785 730
f 786 731 730
f 786 730 785
f 786 787 731
f 731 787 722
f 787 788 722
f 788 780 722
f 780 788 781
f 781 788 789
f 781 789 782
f 782 789 790
f 782 790 783
f 783 790 791
f 783 791 784
f 784 791 792
f 733 793 785
f 733 785 729
f 795 786 794
f 786 793 794
f 786 785 793
f 786 795 787
f 735 796 793
f 735 793 733
f 794 793 797
f 797 793 796
f 800 799 798
f 737 801 796
f 737 796 735
f 797 796 802
f 796 803 802
f 796 801 803
f 805 804 803
f 803 804 802
f 805 806 804
f 809 808 807
f 811 810 807
f 807 810 809
f 810 811 799
f 811 798 799
f 811 812 798
f 738 801 737
f 801 738 739
f 801 739 803
f 803 739 741
f 813 803 741
f 805 803 813
f 806 805 814
f 805 815 814
f 805 813 815
f 814 815 808
f 808 815 807
f 815 743 807
f 743 744 807
f 807 744 745
f 807 745 811
f 811 745 747
f 811 747 812
f 748 813 741
f 813 748 749
f 813 749 815
f 815 749 743
f 757 816 758
f 817 759 758
f 817 758 816
f 818 760 759
f 818 759 817
f 819 761 760
f 819 760 818
f 820 762 761
f 820 761 819
f 820 763 762
f 765 821 764
f 816 757 764
f 821 816 764
f 822 816 821
f 824 817 823
f 817 822 823
f 817 816 822
f 817 824 818
f 818 824 825
f 818 825 819
f 819 825 826
f 828 827 826
f 827 819 826
f 827 820 819
f 827 766 763
f 827 763 820
f 767 821 765
f 821 767 769
f 829 821 769
f 822 821 829
f 823 822 830
f 830 822 829
f 833 832 831
f 833 831 828
f 831 827 828
f 831 834 827
f 834 770 766
f 834 766 827
f 771 829 769
f 836 835 773
f 773 835 771
f 835 830 771
f 830 829 771
f 838 837 836
f 836 837 835
f 837 838 832
f 832 838 831
f 838 775 831
f 775 776 831
f 831 776 777
f 831 777 834
f 834 777 770
f 778 836 773
f 836 778 779
f 836 779 838
f 838 779 775
f 787 839 788
f 840 789 788
f 840 788 839
f 841 790 789
f 841 789 840
f 842 791 790
f 842 790 841
f 843 792 791
f 843 791 842
f 794 844 795
f 839 787 795
f 844 839 795
f 845 839 844
f 839 846 840
f 839 845 846
f 840 847 841
f 840 846 847
f 841 848 842
f 841 847 848
f 842 849 843
f 842 848 849
f 797 850 844
f 797 844 794
f 844 851 845
f 844 850 851
f 845 852 846
f 845 851 852
f 846 853 847
f 846 852 853
f 847 854 848
f 847 853 854
f 854 799 800
f 849 854 800
f 848 854 849
f 802 850 797
f 850 802 804
f 850 804 851
f 851 804 806
f 855 851 806
f 852 851 855
f 855 808 809
f 853 855 809
f 852 855 853
f 853 809 810
f 853 810 854
f 854 810 799
f 814 855 806
f 855 814 808
f 823 856 824
f 857 825 824
f 857 824 856
f 858 826 825
f 858 825 857
f 858 828 826
f 830 859 856
f 830 856 823
f 856 860 857
f 856 859 860
f 860 832 833
f 858 860 833
f 857 860 858
f 858 833 828
f 835 859 830
f 859 835 837
f 859 837 860
f 860 837 832
